<svg preserveAspectRatio="none" overflow="visible" style="display: block;" width="16.6667" height="12.5" viewBox="0 0 16.6667 12.5" fill="none" xmlns="http://www.w3.org/2000/svg">
<path id="Vector" d="M14.1667 0H2.5C1.83757 0.00197841 1.20283 0.266006 0.734419 0.734419C0.266006 1.20283 0.00197841 1.83757 0 2.5V3.33333H16.6667V2.5C16.6647 1.83757 16.4007 1.20283 15.9322 0.734419C15.4638 0.266006 14.8291 0.00197841 14.1667 0ZM0 10C0.00197841 10.6624 0.266006 11.2972 0.734419 11.7656C1.20283 12.234 1.83757 12.498 2.5 12.5H14.1667C14.8291 12.498 15.4638 12.234 15.9322 11.7656C16.4007 11.2972 16.6647 10.6624 16.6667 10V5H0V10Z" fill="#87BCF8"/>
</svg>
