<svg preserveAspectRatio="none" overflow="visible" style="display: block;" width="15.7928" height="13.83" viewBox="0 0 15.7928 13.83" fill="none" xmlns="http://www.w3.org/2000/svg">
<path id="Vector" d="M0.750973 13.83C0.609723 13.83 0.482848 13.7955 0.370348 13.7265C0.257848 13.6574 0.170417 13.5664 0.108056 13.4533C0.0430562 13.3411 0.00729225 13.2196 0.000764468 13.0888C-0.00576331 12.9579 0.0295143 12.8283 0.106598 12.7L7.24056 0.376667C7.31778 0.248334 7.41431 0.153473 7.53014 0.0920843C7.64611 0.0306954 7.7682 0 7.89639 0C8.02458 0 8.14667 0.0306954 8.26264 0.0920843C8.37847 0.153473 8.475 0.248334 8.55222 0.376667L15.6862 12.7C15.7633 12.8283 15.7985 12.9579 15.792 13.0888C15.7855 13.2196 15.7497 13.3411 15.6847 13.4533C15.6224 13.5664 15.5349 13.6574 15.4224 13.7265C15.3099 13.7955 15.1831 13.83 15.0418 13.83H0.750973ZM7.89639 11.5865C8.08708 11.5865 8.24695 11.5219 8.37597 11.3929C8.505 11.2639 8.56951 11.104 8.56951 10.9133C8.56951 10.7226 8.505 10.5628 8.37597 10.4338C8.24695 10.3047 8.08708 10.2402 7.89639 10.2402C7.7057 10.2402 7.54583 10.3047 7.41681 10.4338C7.28778 10.5628 7.22326 10.7226 7.22326 10.9133C7.22326 11.104 7.28778 11.2639 7.41681 11.3929C7.54583 11.5219 7.7057 11.5865 7.89639 11.5865ZM7.8966 9.40688C8.07382 9.40688 8.22222 9.34701 8.34181 9.22729C8.46153 9.10743 8.52139 8.95896 8.52139 8.78188V5.86521C8.52139 5.68813 8.46146 5.53972 8.3416 5.42C8.22174 5.30014 8.07326 5.24021 7.89618 5.24021C7.71896 5.24021 7.57056 5.30014 7.45097 5.42C7.33125 5.53972 7.27139 5.68813 7.27139 5.86521V8.78188C7.27139 8.95896 7.33132 9.10743 7.45118 9.22729C7.57104 9.34701 7.71952 9.40688 7.8966 9.40688Z" fill="#FFC42E"/>
</svg>
